<svg xmlns="http://www.w3.org/2000/svg" viewBox="0 0 640 640" width="640" height="640" role="img" aria-label="A dried flower bouquet wrapped in paper">
<defs>
<linearGradient id="bg" x1="0" y1="0" x2="1" y2="1"><stop offset="0" stop-color="#F4EAE0"/><stop offset="1" stop-color="#E6D3C2"/></linearGradient>
<radialGradient id="gl" cx=".5" cy=".4" r=".62"><stop offset="0" stop-color="#fff" stop-opacity=".6"/><stop offset="1" stop-color="#fff" stop-opacity="0"/></radialGradient>
<filter id="sh" x="-30%" y="-40%" width="160%" height="200%"><feGaussianBlur stdDeviation="16"/></filter>
</defs>
<rect width="640" height="640" fill="url(#bg)"/>
<ellipse cx="320" cy="290" rx="262" ry="244" fill="url(#gl)"/>
<g transform=" rotate(-12 78 108)translate(65.0,96.6) scale(0.2600)"><path d="M50 88C20 66 8 50 8 34 8 19 19 10 32 10c8 0 14 4 18 10 4-6 10-10 18-10 13 0 24 9 24 24 0 16-12 32-42 54Z" fill="#ffffff" opacity="0.55"/></g><g transform=" rotate(14 566 150)translate(557.0,142.1) scale(0.1800)"><path d="M50 88C20 66 8 50 8 34 8 19 19 10 32 10c8 0 14 4 18 10 4-6 10-10 18-10 13 0 24 9 24 24 0 16-12 32-42 54Z" fill="#ffffff" opacity="0.45"/></g><g transform=" rotate(8 560 520)translate(545.0,506.8) scale(0.3000)"><path d="M50 88C20 66 8 50 8 34 8 19 19 10 32 10c8 0 14 4 18 10 4-6 10-10 18-10 13 0 24 9 24 24 0 16-12 32-42 54Z" fill="#ffffff" opacity="0.35"/></g><g transform=" rotate(-6 96 470)translate(88.0,463.0) scale(0.1600)"><path d="M50 88C20 66 8 50 8 34 8 19 19 10 32 10c8 0 14 4 18 10 4-6 10-10 18-10 13 0 24 9 24 24 0 16-12 32-42 54Z" fill="#ffffff" opacity="0.4"/></g>
<ellipse cx="320" cy="512" rx="168" ry="24" fill="#2A1512" opacity=".13" filter="url(#sh)"/>
<path d="M320 512C320 470 162 322 192 232" fill="none" stroke="#B9A88C" stroke-width="5" stroke-linecap="round"/><path d="M320 512C320 470 240 266 250 176" fill="none" stroke="#B9A88C" stroke-width="5" stroke-linecap="round"/><path d="M320 512C320 470 320 248 320 158" fill="none" stroke="#B9A88C" stroke-width="5" stroke-linecap="round"/><path d="M320 512C320 470 402 272 392 182" fill="none" stroke="#B9A88C" stroke-width="5" stroke-linecap="round"/><path d="M320 512C320 470 478 334 448 244" fill="none" stroke="#B9A88C" stroke-width="5" stroke-linecap="round"/><circle cx="192" cy="232" r="30" fill="#FCF8F2"/><circle cx="192" cy="232" r="16" fill="#F0C3CC" opacity=".5"/><circle cx="250" cy="176" r="26" fill="#F0C3CC"/><circle cx="250" cy="176" r="12" fill="#6E1128" opacity=".35"/><circle cx="320" cy="158" r="34" fill="#FCF8F2"/><circle cx="320" cy="158" r="18" fill="#F0C3CC" opacity=".55"/><circle cx="392" cy="182" r="26" fill="#F0C3CC"/><circle cx="392" cy="182" r="12" fill="#6E1128" opacity=".35"/><circle cx="448" cy="244" r="30" fill="#FCF8F2"/><circle cx="448" cy="244" r="16" fill="#F0C3CC" opacity=".5"/><path d="M320 300 200 470l120 72 120-72Z" fill="#D9BFA4"/><path d="M320 300 200 470l120 72Z" fill="#000" opacity=".07"/><path d="M252 452h136" stroke="#6E1128" stroke-width="10" stroke-linecap="round"/><g transform="translate(303.0,437.0) scale(0.3400)"><path d="M50 88C20 66 8 50 8 34 8 19 19 10 32 10c8 0 14 4 18 10 4-6 10-10 18-10 13 0 24 9 24 24 0 16-12 32-42 54Z" fill="#6E1128" opacity="1.0"/></g>
</svg>
